<svg width="60" height="60" viewBox="0 0 60 60" fill="none" xmlns="http://www.w3.org/2000/svg">
<path d="M20.8587 5.43799C18.8431 6.32861 16.8744 7.31299 16.5462 7.59424C15.6087 8.34424 15.7962 10.9224 16.8744 12.0474C18.1869 13.4536 20.015 13.7349 23.1087 12.8911C24.6087 12.5161 25.9212 12.188 26.015 12.188C26.4369 12.188 26.2494 10.3599 25.7806 10.0786C25.5462 9.93799 24.1869 10.1255 22.7806 10.5474C20.8119 11.1099 19.9681 11.1567 19.2181 10.7817C17.5306 9.89111 18.2337 9.18799 22.7806 7.31299L27.2337 5.48486L32.7181 5.76611C38.2025 6.00049 38.2025 6.00049 43.3587 8.48486C48.4212 10.9224 48.6087 11.0161 53.3431 11.1567C57.8431 11.3442 58.1244 11.2974 58.1244 10.4067C58.1244 9.60986 57.6556 9.46924 54.0931 9.18799C50.4837 8.90674 49.4056 8.62549 44.5775 6.32861L39.0931 3.75049L31.8275 3.79736C24.6556 3.79736 24.6087 3.84424 20.8587 5.43799Z" fill="#182653"/>
<path d="M28.0775 8.95272C27.7963 9.51522 27.6556 10.8277 27.7963 11.9058C28.1244 14.3902 29.765 15.8433 34.1244 17.6246C36.3275 18.5152 37.6869 19.4058 38.1556 20.2496C38.5775 20.9058 39.8431 21.9371 41.015 22.4996C42.7494 23.3433 43.64 23.484 46.0306 23.2496C47.6713 23.109 51.0463 22.8277 53.5775 22.6871C57.7494 22.4527 58.1244 22.359 58.1244 21.4215C58.1244 20.484 57.9838 20.484 50.7181 20.7652C43.9681 21.0465 43.1713 20.9996 41.8588 20.1558C41.015 19.6871 40.0306 18.7496 39.6088 18.0933C39.14 17.3902 37.5931 16.4527 35.5775 15.6558C32.1556 14.2965 29.9994 12.7027 29.9994 11.5308C29.9994 10.734 30.8431 11.0152 36.7025 13.5465C39.6088 14.8121 41.2494 14.859 41.2494 13.6402C41.2494 12.9371 39.9838 12.234 35.4369 10.359C32.2025 9.04647 29.39 7.96835 29.1088 7.96835C28.8275 7.96835 28.4056 8.4371 28.0775 8.95272Z" fill="#182653"/>
<path d="M17.0626 15.2342C16.6876 16.1717 17.2032 17.4842 17.9064 17.2498C18.1876 17.1561 18.6564 16.6873 18.9376 16.2654C19.3126 15.6561 19.2657 15.3279 18.7501 14.9998C17.7657 14.3436 17.3439 14.4373 17.0626 15.2342Z" fill="#182653"/>
<path d="M13.4068 18.8426C11.4849 21.7488 10.5943 24.702 10.4068 28.6863C10.1724 33.5613 10.5006 35.2957 11.6256 35.0613C12.2818 34.9207 12.4693 34.1238 12.6568 29.9988C12.8912 25.6863 13.1256 24.702 14.4381 22.1238C15.2818 20.5301 15.9381 18.8895 15.9381 18.5145C15.9381 17.4363 14.1568 17.6707 13.4068 18.8426Z" fill="#182653"/>
<path d="M26.25 23.4375V26.25H23.4375H20.625V30V33.75H23.4375H26.25V36.5625V39.375H30H33.75V36.5625V33.75H36.5625H39.375V30V26.25H36.5625H33.75V23.4375V20.625H30H26.25V23.4375ZM31.875 25.3125V28.125H34.6875H37.5V30V31.875H34.6875H31.875V34.6875V37.5H30H28.125V34.6875V31.875H25.3125H22.5V30V28.125H25.3125H28.125V25.3125V22.5H30H31.875V25.3125Z" fill="#182653"/>
<path d="M47.5779 25.4061C47.4841 25.7342 47.3435 28.0311 47.2498 30.4686C47.1091 34.3592 46.8748 35.2967 45.5623 37.8748C43.781 41.3905 43.6404 42.328 45.1404 42.0936C45.8904 41.9998 46.5935 41.1092 47.8123 38.7186C49.2654 35.8123 49.4529 34.9686 49.5935 30.8436C49.7341 27.6561 49.6404 26.0155 49.2185 25.5467C48.5154 24.703 47.8591 24.6561 47.5779 25.4061Z" fill="#182653"/>
<path d="M11.0156 37.031C10.5 37.2654 8.25 37.4529 6 37.4529C2.10937 37.4998 1.875 37.5467 1.875 38.531C1.875 39.5154 1.92187 39.5154 9.28125 39.2342C16.0312 38.9529 16.8281 38.9998 18.1406 39.8435C18.9844 40.3123 19.9687 41.2498 20.3906 41.906C20.8594 42.6092 22.4062 43.5467 24.4219 44.3435C27.8437 45.7029 30 47.2967 30 48.4685C30 49.2654 29.1562 48.9842 23.2969 46.4529C20.3906 45.1873 18.75 45.1404 18.75 46.3592C18.75 47.0623 20.0156 47.7654 24.6562 49.6873C27.8906 50.9998 30.8437 51.9842 31.2187 51.8435C32.0625 51.5154 32.5312 49.5467 32.1562 47.6248C31.7344 45.5154 29.9531 44.0154 25.8281 42.3279C23.6719 41.4373 22.3125 40.5935 21.8437 39.7498C20.2969 37.2185 14.2031 35.6717 11.0156 37.031Z" fill="#182653"/>
<path d="M41.25 44.0146C41.25 45.2803 42.1406 45.7021 42.9844 44.8584C43.8281 44.0146 43.4062 43.124 42.1406 43.124C41.5781 43.124 41.25 43.4521 41.25 44.0146Z" fill="#182653"/>
<path d="M36.7969 47.1094C35.5312 47.4844 34.3125 47.7656 34.125 47.8125C33.6094 47.8125 33.6562 49.5937 34.2188 49.9219C34.4531 50.0625 35.8125 49.875 37.2188 49.4531C39.1875 48.8906 40.0312 48.8437 40.7812 49.2187C42.4688 50.1094 41.7656 50.8125 37.2656 52.6875C32.8125 54.4687 32.7656 54.4687 27.5156 54.2812C22.3125 54.0937 22.2188 54.0469 16.875 51.5625C11.625 49.0781 11.3438 49.0312 6.70312 48.8437C2.15625 48.6562 1.875 48.7031 1.875 49.5937C1.875 50.3906 2.34375 50.5312 5.90625 50.8125C9.51562 51.0937 10.5938 51.375 15.4219 53.6719L20.9062 56.25H27.9844C35.0625 56.25 35.0625 56.25 38.9531 54.5625C43.7344 52.5469 44.0625 52.2656 44.0625 50.4375C44.0156 48.6562 43.2188 47.5312 41.5312 46.875C39.9844 46.3125 39.7031 46.3125 36.7969 47.1094Z" fill="#182653"/>
</svg>
